<svg xmlns="http://www.w3.org/2000/svg" style="display: none;">

    <symbol id="circle-cross" viewBox="0 0 1024 1024">
      <path
        d="M862.168218 470.328925 262.580371 470.328925l246.671029-246.671029c15.984043-15.985066 15.984043-41.901319 0-57.886385-15.985066-15.985066-41.902342-15.985066-57.887408 0L135.104047 482.031455c-15.985066 15.985066-15.985066 41.901319 0 57.887408l314.442552 314.441529c7.993045 7.993045 18.467607 11.989055 28.943193 11.989055s20.951171-3.996011 28.944216-11.989055c15.984043-15.985066 15.984043-41.901319 0-57.886385L263.153422 552.193421l599.014796 0c22.606881 0 40.932248-18.325367 40.932248-40.932248C903.100466 488.655316 884.775098 470.328925 862.168218 470.328925z" fill="#ffffff"
      />
    </symbol>
    
</svg>
